# xmcd CD database file
#
# Track frame offsets:
#	150
#	18080
#	35983
#	53596
#	71506
#	89415
#	107323
#	125239
#	143143
#	160905
#	178798
#	196705
#	214524
#	232388
#	250252
#	268160
#	285989
#	303582
#	321439
#	339249
#
# Disc length: 4761 seconds
#
# Revision: 1
# Processed by: cddbd v1.5.2PL0 Copyright (c) Steve Scherf et al.
# Submitted via: CDex 1.51
#
DISCID=26129714
DTITLE=West Wind - Margarita Madness
DYEAR=1900
DGENRE=Country
TTITLE0=West Wind
TTITLE1=West Wind
TTITLE2=West Wind
TTITLE3=West Wind
TTITLE4=West Wind
TTITLE5=West Wind
TTITLE6=West Wind
TTITLE7=West Wind
TTITLE8=West Wind
TTITLE9=West Wind
TTITLE10=West Wind
TTITLE11=West Wind
TTITLE12=West Wind
TTITLE13=West Wind
TTITLE14=West Wind
TTITLE15=West Wind
TTITLE16=West Wind
TTITLE17=West Wind
TTITLE18=West Wind
TTITLE19=West Wind
EXTD=West Wind
EXTT0=West Wind
EXTT1=West Wind
EXTT2=West Wind
EXTT3=West Wind
EXTT4=West Wind
EXTT5=West Wind
EXTT6=West Wind
EXTT7=West Wind
EXTT8=West Wind
EXTT9=West Wind
EXTT10=West Wind
EXTT11=West Wind
EXTT12=West Wind
EXTT13=West Wind
EXTT14=West Wind
EXTT15=West Wind
EXTT16=West Wind
EXTT17=West Wind
EXTT18=West Wind
EXTT19=West Wind
PLAYORDER=
